<svg id="svg" version="1.1" xmlns="http://www.w3.org/2000/svg" xmlns:xlink="http://www.w3.org/1999/xlink" width="400" height="400" viewBox="0, 0, 400,400"><g id="svgg"><path id="path0" d="M190.200 95.632 C 188.440 95.811,186.010 96.147,184.800 96.379 C 183.590 96.611,181.070 97.090,179.200 97.444 C 167.025 99.746,150.631 107.529,140.600 115.770 C 120.694 132.122,109.562 151.402,105.128 177.200 C 104.417 181.336,104.418 200.367,105.129 204.400 C 106.538 212.393,107.749 217.343,109.450 222.069 C 124.837 264.811,165.698 290.608,210.716 286.003 C 220.976 284.953,234.642 280.842,243.437 276.160 C 270.063 261.985,288.117 238.320,293.760 210.200 C 295.230 202.870,295.400 200.833,295.391 190.600 C 295.383 180.733,295.188 178.242,293.953 172.200 C 284.010 123.558,239.393 90.632,190.200 95.632 M205.907 119.819 C 210.946 121.924,213.146 128.647,210.178 132.870 C 205.833 139.053,197.054 138.306,194.220 131.513 C 191.279 124.461,198.861 116.875,205.907 119.819 M245.671 155.833 C 253.683 173.231,256.177 182.563,256.192 195.200 C 256.220 220.157,243.752 238.488,222.200 245.178 C 212.076 248.321,195.380 248.959,184.600 246.616 C 153.105 239.769,142.057 217.661,153.408 184.197 C 155.768 177.241,156.301 176.000,156.928 176.000 C 157.447 176.000,169.161 180.627,169.500 180.967 C 169.599 181.066,169.047 183.004,168.272 185.274 C 157.560 216.632,168.712 232.823,201.000 232.792 C 224.064 232.770,237.669 222.932,241.028 203.845 C 242.882 193.309,238.794 176.170,230.542 159.885 C 229.318 157.471,228.901 157.886,236.419 154.039 C 243.670 150.329,243.085 150.216,245.671 155.833 " stroke="none" fill="#00000" fill-rule="evenodd"></path><path id="path1" d="M0.000 200.000 L 0.000 400.000 200.000 400.000 L 400.000 400.000 400.000 200.000 L 400.000 0.000 200.000 0.000 L 0.000 0.000 0.000 200.000 M217.400 95.935 C 283.462 108.304,317.126 182.807,282.677 240.400 C 268.506 264.092,246.373 279.363,216.800 285.854 C 211.251 287.072,188.776 286.953,182.400 285.672 C 100.651 269.250,75.631 167.030,140.606 114.918 C 153.121 104.881,167.513 98.809,187.200 95.260 C 191.584 94.470,212.013 94.927,217.400 95.935 M199.000 120.665 C 191.157 124.799,193.811 136.400,202.600 136.400 C 210.967 136.400,213.886 125.046,206.583 120.910 C 204.654 119.817,200.842 119.694,199.000 120.665 M236.732 154.608 C 229.716 158.154,230.175 157.530,231.880 161.200 C 252.465 205.502,240.345 233.550,200.600 233.591 C 168.643 233.624,156.692 215.968,167.653 184.914 C 169.078 180.877,169.495 181.405,162.870 178.853 C 156.530 176.411,156.956 176.451,156.217 178.222 C 152.452 187.232,149.595 199.915,149.602 207.590 C 149.627 234.868,175.598 251.414,211.200 246.831 C 248.272 242.060,265.271 208.110,250.345 168.654 C 248.029 162.532,243.215 151.590,242.850 151.621 C 242.713 151.633,239.959 152.977,236.732 154.608 " stroke="none" fill="#000000" fill-rule="evenodd"></path><path id="path2" d="M194.500 95.099 C 197.525 95.167,202.475 95.167,205.500 95.099 C 208.525 95.031,206.050 94.975,200.000 94.975 C 193.950 94.975,191.475 95.031,194.500 95.099 M185.600 95.600 C 184.243 95.886,184.237 95.895,185.400 95.907 C 186.060 95.915,187.050 95.776,187.600 95.600 C 188.912 95.180,187.596 95.180,185.600 95.600 M213.000 95.600 C 213.660 95.768,214.650 95.905,215.200 95.905 C 216.092 95.905,216.070 95.872,215.000 95.600 C 214.340 95.432,213.350 95.295,212.800 95.295 C 211.908 95.295,211.930 95.328,213.000 95.600 M181.000 96.400 C 179.922 96.674,179.902 96.706,180.800 96.713 C 181.350 96.717,182.250 96.576,182.800 96.400 C 184.144 95.969,182.692 95.969,181.000 96.400 M217.600 96.400 C 218.150 96.576,219.050 96.717,219.600 96.713 C 220.498 96.706,220.478 96.674,219.400 96.400 C 217.708 95.969,216.256 95.969,217.600 96.400 M177.200 97.200 C 176.396 97.457,176.357 97.523,177.000 97.532 C 177.440 97.538,178.160 97.389,178.600 97.200 C 179.619 96.762,178.568 96.762,177.200 97.200 M222.400 97.200 C 223.768 97.638,224.819 97.638,223.800 97.200 C 223.360 97.011,222.640 96.862,222.200 96.868 C 221.557 96.877,221.596 96.943,222.400 97.200 M172.600 98.400 C 171.500 98.806,170.870 99.138,171.200 99.138 C 171.530 99.138,172.700 98.806,173.800 98.400 C 174.900 97.994,175.530 97.662,175.200 97.662 C 174.870 97.662,173.700 97.994,172.600 98.400 M161.800 102.378 C 160.920 102.795,160.313 103.150,160.451 103.168 C 160.840 103.218,163.600 102.014,163.600 101.795 C 163.600 101.527,163.599 101.527,161.800 102.378 M238.446 102.579 C 238.823 102.956,246.000 106.388,246.000 106.192 C 246.000 106.092,244.722 105.367,243.161 104.580 C 240.234 103.106,238.043 102.177,238.446 102.579 M155.900 105.026 C 154.855 105.570,154.000 106.105,154.000 106.214 C 154.000 106.324,154.900 105.957,156.000 105.400 C 157.100 104.843,158.000 104.300,158.000 104.193 C 158.000 103.929,158.036 103.914,155.900 105.026 M152.200 107.200 C 151.540 107.637,151.180 107.992,151.400 107.988 C 151.801 107.982,153.976 106.423,153.600 106.412 C 153.490 106.408,152.860 106.763,152.200 107.200 M248.800 107.964 C 249.350 108.414,249.980 108.783,250.200 108.785 C 250.628 108.788,249.905 108.234,248.600 107.560 C 248.069 107.285,248.136 107.421,248.800 107.964 M147.896 109.750 C 145.975 110.931,145.438 111.489,147.000 110.681 C 148.254 110.033,149.945 108.826,149.600 108.825 C 149.490 108.825,148.723 109.241,147.896 109.750 M143.200 112.875 C 137.953 116.838,130.438 123.785,127.071 127.785 C 126.152 128.877,128.100 127.074,131.400 123.778 C 134.700 120.482,138.819 116.709,140.553 115.393 C 144.174 112.644,145.887 111.228,145.600 111.219 C 145.490 111.216,144.410 111.961,143.200 112.875 M254.400 111.325 C 254.400 111.424,255.061 112.009,255.868 112.625 C 256.676 113.241,257.211 113.541,257.056 113.291 C 256.740 112.779,254.400 111.047,254.400 111.325 M257.600 113.728 C 257.600 113.828,258.905 114.957,260.500 116.238 C 262.095 117.518,265.484 120.554,268.032 122.983 L 272.663 127.400 267.622 122.400 C 263.254 118.068,257.600 113.176,257.600 113.728 M201.507 119.890 C 202.226 119.979,203.306 119.977,203.907 119.886 C 204.508 119.795,203.920 119.722,202.600 119.724 C 201.280 119.726,200.788 119.801,201.507 119.890 M198.600 120.466 C 196.717 121.505,193.949 124.883,194.517 125.450 C 194.613 125.547,194.910 125.101,195.175 124.460 C 195.736 123.106,197.290 121.564,199.000 120.664 C 199.660 120.316,200.020 120.030,199.800 120.028 C 199.580 120.026,199.040 120.223,198.600 120.466 M206.507 120.831 C 207.336 121.268,208.551 122.367,209.207 123.273 C 209.863 124.179,210.400 124.775,210.400 124.598 C 210.400 123.465,206.584 119.971,205.400 120.019 C 205.180 120.028,205.678 120.393,206.507 120.831 M210.600 128.200 C 210.600 129.808,210.732 130.916,210.894 130.662 C 211.056 130.408,211.188 129.300,211.188 128.200 C 211.188 127.100,211.056 125.992,210.894 125.738 C 210.732 125.484,210.600 126.592,210.600 128.200 M194.124 128.200 C 194.126 129.520,194.201 130.012,194.290 129.293 C 194.379 128.574,194.377 127.494,194.286 126.893 C 194.195 126.292,194.122 126.880,194.124 128.200 M194.402 131.249 C 194.401 131.605,195.075 132.606,195.900 133.472 C 196.725 134.338,197.006 134.587,196.525 134.024 C 196.044 133.461,195.370 132.460,195.028 131.800 C 194.678 131.125,194.404 130.884,194.402 131.249 M208.833 133.558 C 208.081 134.571,207.775 135.146,208.152 134.836 C 208.971 134.161,210.547 132.003,210.344 131.835 C 210.265 131.770,209.585 132.545,208.833 133.558 M276.791 133.188 C 277.257 133.841,277.842 134.502,278.091 134.656 C 278.341 134.811,278.041 134.276,277.425 133.468 C 276.088 131.715,275.584 131.492,276.791 133.188 M280.235 137.900 C 281.270 139.495,282.186 140.800,282.271 140.800 C 282.571 140.800,280.581 137.605,279.476 136.314 C 278.858 135.591,279.199 136.305,280.235 137.900 M200.138 136.494 C 200.392 136.656,201.500 136.788,202.600 136.788 C 203.700 136.788,204.808 136.656,205.062 136.494 C 205.316 136.332,204.208 136.200,202.600 136.200 C 200.992 136.200,199.884 136.332,200.138 136.494 M116.752 142.100 C 116.490 142.595,116.015 143.450,115.696 144.000 C 115.139 144.959,115.143 144.967,115.788 144.200 C 116.586 143.252,117.705 141.200,117.424 141.200 C 117.316 141.200,117.014 141.605,116.752 142.100 M283.215 142.600 C 283.217 142.820,283.586 143.450,284.036 144.000 C 284.579 144.664,284.715 144.731,284.440 144.200 C 283.766 142.895,283.212 142.172,283.215 142.600 M112.672 149.819 C 111.732 151.789,111.864 152.124,112.847 150.262 C 113.293 149.416,113.587 148.654,113.501 148.567 C 113.414 148.481,113.041 149.044,112.672 149.819 M286.400 148.484 C 286.400 148.916,287.615 151.600,287.811 151.600 C 287.921 151.600,287.733 150.934,287.393 150.121 C 286.793 148.686,286.400 148.038,286.400 148.484 M240.700 152.226 C 239.655 152.770,238.800 153.305,238.800 153.414 C 238.800 153.593,242.760 151.723,243.167 151.352 C 243.662 150.901,242.361 151.362,240.700 152.226 M244.834 155.400 C 244.834 155.620,245.178 156.430,245.600 157.200 C 246.022 157.970,246.366 158.420,246.366 158.200 C 246.366 157.980,246.022 157.170,245.600 156.400 C 245.178 155.630,244.834 155.180,244.834 155.400 M289.645 156.000 C 289.653 156.330,290.006 157.320,290.429 158.200 C 290.852 159.080,291.086 159.362,290.949 158.826 C 290.573 157.361,289.629 155.314,289.645 156.000 M292.056 162.800 C 292.056 163.130,292.211 163.760,292.400 164.200 C 292.617 164.704,292.744 164.778,292.744 164.400 C 292.744 164.070,292.589 163.440,292.400 163.000 C 292.183 162.496,292.056 162.422,292.056 162.800 M106.846 165.667 C 106.821 166.034,106.696 166.664,106.570 167.067 C 106.352 167.762,106.363 167.763,106.797 167.087 C 107.048 166.696,107.173 166.066,107.073 165.687 C 106.911 165.068,106.888 165.066,106.846 165.667 M292.806 165.833 C 292.809 166.255,292.995 166.870,293.218 167.200 C 293.515 167.638,293.552 167.476,293.356 166.600 C 293.027 165.129,292.798 164.810,292.806 165.833 M249.851 167.174 C 250.227 168.639,251.171 170.686,251.155 170.000 C 251.147 169.670,250.794 168.680,250.371 167.800 C 249.948 166.920,249.714 166.638,249.851 167.174 M105.850 169.650 C 105.517 171.317,105.840 171.640,106.200 170.000 C 106.352 169.309,106.393 168.659,106.291 168.558 C 106.189 168.456,105.991 168.947,105.850 169.650 M293.668 169.000 C 293.662 169.440,293.811 170.160,294.000 170.600 C 294.438 171.619,294.438 170.568,294.000 169.200 C 293.743 168.396,293.677 168.357,293.668 169.000 M294.487 172.800 C 294.483 173.350,294.624 174.250,294.800 174.800 C 295.231 176.144,295.231 174.692,294.800 173.000 C 294.526 171.922,294.494 171.902,294.487 172.800 M105.249 173.000 C 105.216 173.440,105.096 174.250,104.983 174.800 L 104.777 175.800 105.206 174.819 C 105.442 174.279,105.561 173.469,105.472 173.019 C 105.313 172.221,105.307 172.221,105.249 173.000 M156.411 176.987 C 156.143 177.309,156.017 177.804,156.131 178.087 C 156.263 178.417,156.348 178.358,156.368 177.920 C 156.386 177.546,156.715 177.056,157.100 176.832 C 157.485 176.608,157.597 176.419,157.349 176.412 C 157.101 176.405,156.679 176.664,156.411 176.987 M104.229 179.229 C 104.076 180.579,104.033 181.766,104.133 181.867 C 104.234 181.967,104.444 180.947,104.600 179.600 C 104.756 178.253,104.799 177.066,104.695 176.962 C 104.591 176.858,104.381 177.878,104.229 179.229 M295.273 177.800 C 295.258 178.460,295.395 179.720,295.577 180.600 C 296.013 182.706,296.050 180.814,295.620 178.400 C 295.380 177.050,295.293 176.900,295.273 177.800 M253.844 179.400 C 254.173 180.871,254.402 181.190,254.394 180.167 C 254.391 179.745,254.205 179.130,253.982 178.800 C 253.685 178.362,253.648 178.524,253.844 179.400 M239.268 181.000 C 239.262 181.440,239.411 182.160,239.600 182.600 C 240.038 183.619,240.038 182.568,239.600 181.200 C 239.343 180.396,239.277 180.357,239.268 181.000 M254.487 182.200 C 254.491 182.640,254.632 183.540,254.800 184.200 C 255.074 185.278,255.106 185.298,255.113 184.400 C 255.117 183.850,254.976 182.950,254.800 182.400 C 254.549 181.616,254.481 181.573,254.487 182.200 M240.068 184.200 C 240.062 184.640,240.211 185.360,240.400 185.800 C 240.838 186.819,240.838 185.768,240.400 184.400 C 240.143 183.596,240.077 183.557,240.068 184.200 M103.764 191.000 C 103.763 194.740,103.823 196.324,103.897 194.520 C 103.971 192.715,103.972 189.655,103.898 187.720 C 103.825 185.784,103.764 187.260,103.764 191.000 M296.163 190.800 C 296.163 194.430,296.223 195.915,296.298 194.100 C 296.372 192.285,296.372 189.315,296.298 187.500 C 296.223 185.685,296.163 187.170,296.163 190.800 M153.073 185.753 C 152.923 186.145,152.811 186.766,152.825 187.133 C 152.842 187.575,152.981 187.474,153.237 186.834 C 153.449 186.303,153.561 185.682,153.485 185.454 C 153.409 185.227,153.224 185.361,153.073 185.753 M255.508 190.400 C 255.620 192.710,255.776 194.675,255.855 194.767 C 256.126 195.079,255.907 188.605,255.605 187.400 C 255.441 186.740,255.397 188.090,255.508 190.400 M166.629 187.829 C 166.481 188.415,166.438 188.972,166.532 189.066 C 166.627 189.160,166.824 188.758,166.971 188.171 C 167.119 187.585,167.162 187.028,167.068 186.934 C 166.973 186.840,166.776 187.242,166.629 187.829 M240.887 188.000 C 240.883 188.550,241.024 189.450,241.200 190.000 C 241.631 191.344,241.631 189.892,241.200 188.200 C 240.926 187.122,240.894 187.102,240.887 188.000 M165.829 190.629 C 165.681 191.215,165.638 191.772,165.732 191.866 C 165.827 191.960,166.024 191.558,166.171 190.971 C 166.319 190.385,166.362 189.828,166.268 189.734 C 166.173 189.640,165.976 190.042,165.829 190.629 M151.429 191.829 C 151.281 192.415,151.238 192.972,151.332 193.066 C 151.427 193.160,151.624 192.758,151.771 192.171 C 151.919 191.585,151.962 191.028,151.868 190.934 C 151.773 190.840,151.576 191.242,151.429 191.829 M241.752 197.600 C 241.755 202.059,241.817 202.753,242.020 200.600 C 242.165 199.060,242.163 196.450,242.015 194.800 C 241.799 192.387,241.748 192.935,241.752 197.600 M165.050 193.650 C 164.717 195.317,165.040 195.640,165.400 194.000 C 165.552 193.309,165.593 192.659,165.491 192.558 C 165.389 192.456,165.191 192.947,165.050 193.650 M150.622 195.422 C 150.472 196.225,150.428 196.962,150.526 197.060 C 150.624 197.157,150.827 196.581,150.978 195.778 C 151.128 194.975,151.172 194.238,151.074 194.140 C 150.976 194.043,150.773 194.619,150.622 195.422 M164.200 197.600 C 164.046 198.510,164.004 199.338,164.107 199.440 C 164.210 199.543,164.413 198.877,164.560 197.960 C 164.707 197.043,164.748 196.215,164.653 196.120 C 164.558 196.024,164.354 196.690,164.200 197.600 M255.677 198.244 C 255.635 199.588,255.515 201.568,255.411 202.644 L 255.222 204.600 255.629 202.649 C 255.852 201.576,255.972 199.596,255.895 198.249 L 255.754 195.800 255.677 198.244 M149.853 199.636 C 149.714 200.331,149.623 201.553,149.651 202.350 C 149.685 203.330,149.810 202.963,150.035 201.218 C 150.389 198.483,150.277 197.513,149.853 199.636 M104.076 200.200 C 104.067 200.860,104.203 202.210,104.380 203.200 C 104.678 204.878,104.702 204.905,104.727 203.600 C 104.742 202.830,104.605 201.480,104.423 200.600 C 104.137 199.220,104.090 199.165,104.076 200.200 M295.387 201.787 C 295.231 203.244,295.189 204.523,295.295 204.628 C 295.401 204.734,295.610 203.623,295.760 202.160 C 295.910 200.697,295.951 199.418,295.852 199.318 C 295.752 199.219,295.543 200.329,295.387 201.787 M163.755 205.800 C 163.756 208.660,163.820 209.778,163.897 208.283 C 163.974 206.789,163.974 204.449,163.896 203.083 C 163.818 201.718,163.755 202.940,163.755 205.800 M241.022 205.422 C 240.872 206.225,240.828 206.962,240.926 207.060 C 241.024 207.157,241.227 206.581,241.378 205.778 C 241.528 204.975,241.572 204.238,241.474 204.140 C 241.376 204.043,241.173 204.619,241.022 205.422 M254.849 205.800 C 254.816 206.240,254.696 207.050,254.583 207.600 L 254.377 208.600 254.806 207.619 C 255.042 207.079,255.161 206.269,255.072 205.819 C 254.913 205.021,254.907 205.021,254.849 205.800 M294.640 207.240 C 294.493 208.157,294.452 208.985,294.547 209.080 C 294.642 209.176,294.846 208.510,295.000 207.600 C 295.154 206.690,295.196 205.862,295.093 205.760 C 294.990 205.657,294.787 206.323,294.640 207.240 M104.887 206.600 C 104.891 207.040,105.032 207.940,105.200 208.600 C 105.474 209.678,105.506 209.698,105.513 208.800 C 105.517 208.250,105.376 207.350,105.200 206.800 C 104.949 206.016,104.881 205.973,104.887 206.600 M253.850 210.450 C 253.709 211.153,253.669 211.802,253.759 211.892 C 253.850 211.983,254.048 211.491,254.200 210.800 C 254.352 210.109,254.393 209.459,254.291 209.358 C 254.189 209.256,253.991 209.747,253.850 210.450 M105.668 210.800 C 105.688 211.839,106.318 213.546,106.332 212.600 C 106.338 212.160,106.189 211.440,106.000 211.000 C 105.789 210.510,105.661 210.432,105.668 210.800 M293.800 211.600 C 293.648 212.291,293.607 212.941,293.709 213.042 C 293.811 213.144,294.009 212.653,294.150 211.950 C 294.291 211.247,294.331 210.598,294.241 210.508 C 294.150 210.417,293.952 210.909,293.800 211.600 M149.640 212.633 C 149.662 213.495,149.827 214.650,150.007 215.200 C 150.211 215.821,150.251 215.291,150.112 213.800 C 149.854 211.021,149.582 210.349,149.640 212.633 M164.068 212.200 C 164.062 212.640,164.211 213.360,164.400 213.800 C 164.838 214.819,164.838 213.768,164.400 212.400 C 164.143 211.596,164.077 211.557,164.068 212.200 M253.029 213.429 C 252.881 214.015,252.838 214.572,252.932 214.666 C 253.027 214.760,253.224 214.358,253.371 213.771 C 253.519 213.185,253.562 212.628,253.468 212.534 C 253.373 212.440,253.176 212.842,253.029 213.429 M106.644 215.000 C 106.973 216.471,107.202 216.790,107.194 215.767 C 107.191 215.345,107.005 214.730,106.782 214.400 C 106.485 213.962,106.448 214.124,106.644 215.000 M293.049 214.615 C 292.912 214.973,292.815 215.566,292.834 215.933 C 292.853 216.300,293.027 216.069,293.221 215.420 C 293.598 214.158,293.465 213.533,293.049 214.615 M165.002 215.600 C 165.366 216.811,166.750 219.600,166.986 219.600 C 167.164 219.600,165.220 215.146,164.891 214.800 C 164.786 214.690,164.836 215.050,165.002 215.600 M236.202 217.700 C 235.595 218.635,234.806 219.770,234.449 220.223 C 234.092 220.676,234.340 220.469,235.000 219.763 C 236.162 218.519,237.820 216.000,237.476 216.000 C 237.383 216.000,236.809 216.765,236.202 217.700 M107.256 217.200 C 107.256 217.530,107.411 218.160,107.600 218.600 C 107.817 219.104,107.944 219.178,107.944 218.800 C 107.944 218.470,107.789 217.840,107.600 217.400 C 107.383 216.896,107.256 216.822,107.256 217.200 M150.468 217.400 C 150.462 217.840,150.611 218.560,150.800 219.000 C 151.238 220.019,151.238 218.968,150.800 217.600 C 150.543 216.796,150.477 216.757,150.468 217.400 M292.249 217.415 C 292.112 217.773,292.015 218.366,292.034 218.733 C 292.053 219.100,292.227 218.869,292.421 218.220 C 292.798 216.958,292.665 216.333,292.249 217.415 M249.882 221.411 C 249.292 222.615,248.894 223.600,248.998 223.600 C 249.267 223.600,251.284 219.551,251.105 219.371 C 251.023 219.289,250.473 220.207,249.882 221.411 M167.923 221.048 C 169.953 224.003,175.350 228.150,179.300 229.788 C 181.593 230.740,181.084 230.189,178.633 229.066 C 175.284 227.533,171.930 225.087,169.385 222.320 C 168.110 220.934,167.452 220.361,167.923 221.048 M232.074 222.682 C 231.564 223.231,231.217 223.750,231.303 223.836 C 231.388 223.922,231.974 223.454,232.604 222.796 C 233.234 222.138,233.581 221.619,233.375 221.642 C 233.169 221.665,232.583 222.134,232.074 222.682 M228.990 225.331 C 228.104 226.029,226.934 226.923,226.390 227.317 C 225.438 228.007,225.451 228.007,226.739 227.317 C 227.977 226.654,231.254 224.015,230.800 224.048 C 230.690 224.055,229.875 224.633,228.990 225.331 M154.259 227.200 C 155.653 229.631,156.184 230.400,156.469 230.400 C 156.621 230.400,156.111 229.455,155.336 228.300 C 153.639 225.773,153.159 225.284,154.259 227.200 M244.975 229.068 C 244.359 229.876,244.059 230.411,244.309 230.256 C 244.821 229.940,246.553 227.600,246.275 227.600 C 246.176 227.600,245.591 228.261,244.975 229.068 M287.800 229.861 C 287.464 230.665,287.282 231.415,287.395 231.528 C 287.508 231.641,287.600 231.635,287.600 231.516 C 287.600 231.396,287.872 230.646,288.205 229.849 C 288.538 229.052,288.721 228.400,288.611 228.400 C 288.501 228.400,288.136 229.058,287.800 229.861 M181.800 230.800 C 182.240 230.989,182.870 231.144,183.200 231.144 C 183.578 231.144,183.504 231.017,183.000 230.800 C 182.560 230.611,181.930 230.456,181.600 230.456 C 181.222 230.456,181.296 230.583,181.800 230.800 M158.268 232.603 C 159.097 233.595,160.501 234.972,161.388 235.663 C 162.376 236.433,161.844 235.735,160.010 233.859 C 156.600 230.370,156.099 230.010,158.268 232.603 M241.586 233.100 L 239.400 235.400 241.700 233.214 C 243.837 231.182,244.183 230.800,243.886 230.800 C 243.824 230.800,242.789 231.835,241.586 233.100 M215.800 231.600 C 215.296 231.817,215.222 231.944,215.600 231.944 C 215.930 231.944,216.560 231.789,217.000 231.600 C 217.504 231.383,217.578 231.256,217.200 231.256 C 216.870 231.256,216.240 231.411,215.800 231.600 M186.833 232.147 C 186.925 232.228,187.720 232.404,188.600 232.538 C 189.715 232.707,189.958 232.671,189.400 232.419 C 188.632 232.071,186.490 231.844,186.833 232.147 M212.400 232.400 C 211.608 232.654,211.567 232.720,212.200 232.720 C 212.640 232.720,213.450 232.576,214.000 232.400 C 214.792 232.146,214.833 232.080,214.200 232.080 C 213.760 232.080,212.950 232.224,212.400 232.400 M192.800 233.210 C 194.610 233.543,199.077 233.726,198.767 233.454 C 198.675 233.374,196.890 233.212,194.800 233.094 C 192.195 232.946,191.566 232.982,192.800 233.210 M205.200 233.200 C 203.011 233.468,203.009 233.470,204.800 233.500 C 205.790 233.516,207.500 233.390,208.600 233.218 C 211.272 232.802,208.565 232.788,205.200 233.200 M236.563 237.168 C 235.222 238.175,233.782 239.229,233.363 239.508 C 232.714 239.941,232.749 239.948,233.600 239.559 C 234.150 239.307,235.590 238.374,236.800 237.486 C 239.538 235.477,239.364 235.625,239.167 235.468 C 239.075 235.395,237.903 236.160,236.563 237.168 M115.560 237.400 C 116.234 238.705,116.788 239.428,116.785 239.000 C 116.783 238.780,116.414 238.150,115.964 237.600 C 115.421 236.936,115.285 236.869,115.560 237.400 M163.379 237.166 C 163.997 238.166,171.234 242.426,172.249 242.386 C 172.442 242.379,171.340 241.732,169.800 240.948 C 168.260 240.165,166.126 238.898,165.058 238.133 C 163.990 237.368,163.235 236.932,163.379 237.166 M283.814 237.835 C 283.441 238.404,283.205 238.938,283.289 239.022 C 283.373 239.107,283.758 238.641,284.144 237.988 C 285.006 236.528,284.748 236.409,283.814 237.835 M117.011 240.000 C 117.808 241.459,121.747 247.244,122.085 247.453 C 122.479 247.696,117.766 240.489,117.081 239.800 C 116.816 239.534,116.793 239.602,117.011 240.000 M229.200 241.600 C 227.550 242.458,226.339 243.169,226.510 243.180 C 226.935 243.207,232.400 240.438,232.400 240.195 C 232.400 239.925,232.532 239.867,229.200 241.600 M279.881 244.200 C 278.631 246.070,277.680 247.600,277.767 247.600 C 277.968 247.600,280.348 244.264,281.549 242.300 C 283.212 239.579,282.193 240.739,279.881 244.200 M180.000 245.182 C 180.330 245.405,180.945 245.591,181.367 245.594 C 182.390 245.602,182.071 245.373,180.600 245.044 C 179.724 244.848,179.562 244.885,180.000 245.182 M219.800 245.200 C 219.296 245.417,219.222 245.544,219.600 245.544 C 219.930 245.544,220.560 245.389,221.000 245.200 C 221.504 244.983,221.578 244.856,221.200 244.856 C 220.870 244.856,220.240 245.011,219.800 245.200 M183.400 246.000 C 183.840 246.189,184.560 246.338,185.000 246.332 C 185.643 246.323,185.604 246.257,184.800 246.000 C 183.432 245.562,182.381 245.562,183.400 246.000 M216.400 246.000 C 215.596 246.257,215.557 246.323,216.200 246.332 C 216.640 246.338,217.360 246.189,217.800 246.000 C 218.819 245.562,217.768 245.562,216.400 246.000 M187.600 246.787 C 188.591 247.117,191.487 247.335,191.167 247.054 C 191.075 246.974,190.010 246.806,188.800 246.681 C 187.380 246.534,186.954 246.571,187.600 246.787 M211.200 246.800 L 209.400 247.080 211.000 247.100 C 211.880 247.111,213.050 246.976,213.600 246.800 C 214.863 246.395,213.802 246.395,211.200 246.800 M196.337 247.701 C 198.392 247.875,201.902 247.874,204.137 247.696 C 207.794 247.407,207.421 247.375,200.400 247.378 C 193.655 247.382,193.105 247.425,196.337 247.701 M124.273 250.500 C 126.667 253.606,138.087 265.200,138.753 265.200 C 139.022 265.200,138.197 264.326,136.921 263.257 C 133.945 260.765,128.042 254.623,125.044 250.900 C 122.185 247.348,121.618 247.054,124.273 250.500 M276.175 249.468 C 275.559 250.276,275.259 250.811,275.509 250.656 C 276.021 250.340,277.753 248.000,277.475 248.000 C 277.376 248.000,276.791 248.661,276.175 249.468 M274.400 251.540 C 274.400 252.345,264.392 262.253,260.191 265.607 C 257.666 267.623,255.600 269.374,255.600 269.498 C 255.600 269.622,255.915 269.456,256.300 269.128 C 256.685 268.801,258.800 267.079,261.000 265.303 C 265.992 261.273,275.905 251.200,274.878 251.200 C 274.615 251.200,274.400 251.353,274.400 251.540 M139.600 265.725 C 139.600 265.824,140.261 266.409,141.068 267.025 C 141.876 267.641,142.411 267.941,142.256 267.691 C 141.940 267.179,139.600 265.447,139.600 265.725 M142.940 268.303 C 143.096 268.556,143.791 269.167,144.484 269.660 C 145.177 270.154,145.617 270.350,145.460 270.097 C 145.304 269.844,144.609 269.233,143.916 268.740 C 143.223 268.246,142.783 268.050,142.940 268.303 M250.287 272.631 C 249.029 273.418,248.000 274.148,248.000 274.254 C 248.000 274.456,250.408 273.064,252.034 271.921 C 253.765 270.704,252.631 271.165,250.287 272.631 M148.600 272.290 C 148.820 272.500,149.720 273.076,150.600 273.570 C 151.480 274.065,151.840 274.170,151.400 273.804 C 150.506 273.061,147.972 271.691,148.600 272.290 M152.400 274.579 C 152.400 274.689,152.940 275.059,153.600 275.400 C 154.260 275.741,154.800 275.931,154.800 275.821 C 154.800 275.711,154.260 275.341,153.600 275.000 C 152.940 274.659,152.400 274.469,152.400 274.579 M244.700 275.829 C 243.205 276.640,243.296 276.978,244.800 276.200 C 245.460 275.859,246.000 275.494,246.000 275.390 C 246.000 275.132,245.957 275.147,244.700 275.829 M176.600 284.400 C 177.040 284.589,177.670 284.744,178.000 284.744 C 178.378 284.744,178.304 284.617,177.800 284.400 C 177.360 284.211,176.730 284.056,176.400 284.056 C 176.022 284.056,176.096 284.183,176.600 284.400 M221.400 284.400 C 220.381 284.838,221.432 284.838,222.800 284.400 C 223.604 284.143,223.643 284.077,223.000 284.068 C 222.560 284.062,221.840 284.211,221.400 284.400 M179.233 284.947 C 179.325 285.028,180.120 285.204,181.000 285.338 C 182.115 285.507,182.358 285.471,181.800 285.219 C 181.032 284.871,178.890 284.644,179.233 284.947 M218.200 285.200 C 217.181 285.638,218.232 285.638,219.600 285.200 C 220.404 284.943,220.443 284.877,219.800 284.868 C 219.360 284.862,218.640 285.011,218.200 285.200 M184.600 286.000 C 185.260 286.168,186.250 286.305,186.800 286.305 C 187.692 286.305,187.670 286.272,186.600 286.000 C 185.940 285.832,184.950 285.695,184.400 285.695 C 183.508 285.695,183.530 285.728,184.600 286.000 M213.800 286.000 C 212.730 286.272,212.708 286.305,213.600 286.305 C 214.150 286.305,215.140 286.168,215.800 286.000 C 216.870 285.728,216.892 285.695,216.000 285.695 C 215.450 285.695,214.460 285.832,213.800 286.000 M194.724 286.699 C 197.873 286.767,202.913 286.767,205.924 286.699 C 208.936 286.631,206.360 286.576,200.200 286.576 C 194.040 286.576,191.576 286.632,194.724 286.699 " stroke="none" fill="#9a9a9a" fill-rule="evenodd"></path><path id="path3" d="M149.324 207.400 C 149.326 208.720,149.401 209.212,149.490 208.493 C 149.579 207.774,149.577 206.694,149.486 206.093 C 149.395 205.492,149.322 206.080,149.324 207.400 M199.907 233.490 C 200.626 233.579,201.706 233.577,202.307 233.486 C 202.908 233.395,202.320 233.322,201.000 233.324 C 199.680 233.326,199.188 233.401,199.907 233.490 M203.300 247.876 C 203.685 247.976,204.315 247.976,204.700 247.876 C 205.085 247.775,204.770 247.693,204.000 247.693 C 203.230 247.693,202.915 247.775,203.300 247.876 " stroke="none" fill="#00000" fill-rule="evenodd"></path><path id="path4" d="M188.000 95.592 C 187.436 95.769,188.307 95.814,190.000 95.697 C 191.650 95.583,193.075 95.424,193.167 95.345 C 193.487 95.067,188.992 95.282,188.000 95.592 M208.433 95.344 C 208.525 95.424,209.680 95.589,211.000 95.712 C 212.491 95.851,213.021 95.811,212.400 95.607 C 211.412 95.284,208.111 95.065,208.433 95.344 M183.200 96.400 C 182.408 96.654,182.367 96.720,183.000 96.720 C 183.440 96.720,184.250 96.576,184.800 96.400 C 185.592 96.146,185.633 96.080,185.000 96.080 C 184.560 96.080,183.750 96.224,183.200 96.400 M215.600 96.400 C 216.150 96.576,216.960 96.720,217.400 96.720 C 218.033 96.720,217.992 96.654,217.200 96.400 C 216.650 96.224,215.840 96.080,215.400 96.080 C 214.767 96.080,214.808 96.146,215.600 96.400 M179.000 97.200 C 177.981 97.638,179.032 97.638,180.400 97.200 C 181.204 96.943,181.243 96.877,180.600 96.868 C 180.160 96.862,179.440 97.011,179.000 97.200 M219.233 96.947 C 219.325 97.028,220.120 97.204,221.000 97.338 C 222.115 97.507,222.358 97.471,221.800 97.219 C 221.032 96.871,218.890 96.644,219.233 96.947 M148.800 109.636 C 148.136 110.179,148.069 110.315,148.600 110.040 C 149.905 109.366,150.628 108.812,150.200 108.815 C 149.980 108.817,149.350 109.186,148.800 109.636 M250.000 108.913 C 250.110 109.031,251.190 109.784,252.400 110.586 C 253.810 111.520,254.169 111.669,253.400 111.001 C 252.371 110.107,249.430 108.301,250.000 108.913 M141.078 115.009 C 139.605 116.224,138.400 117.310,138.400 117.423 C 138.400 117.537,139.525 116.702,140.900 115.570 C 143.858 113.133,144.226 112.800,143.958 112.800 C 143.847 112.800,142.551 113.794,141.078 115.009 M259.400 115.756 C 260.280 116.544,261.165 117.191,261.367 117.194 C 261.568 117.197,261.658 117.145,261.567 117.077 C 261.475 117.010,260.590 116.363,259.600 115.639 L 257.800 114.324 259.400 115.756 M136.181 119.300 L 134.600 121.000 136.300 119.419 C 137.881 117.948,138.184 117.600,137.881 117.600 C 137.816 117.600,137.051 118.365,136.181 119.300 M262.000 117.725 C 262.000 117.794,262.585 118.379,263.300 119.025 L 264.600 120.200 263.425 118.900 C 262.330 117.688,262.000 117.416,262.000 117.725 M199.800 119.600 C 199.296 119.817,199.222 119.944,199.600 119.944 C 199.930 119.944,200.560 119.789,201.000 119.600 C 201.504 119.383,201.578 119.256,201.200 119.256 C 200.870 119.256,200.240 119.411,199.800 119.600 M204.200 119.600 C 204.640 119.789,205.270 119.944,205.600 119.944 C 205.978 119.944,205.904 119.817,205.400 119.600 C 204.960 119.411,204.330 119.256,204.000 119.256 C 203.622 119.256,203.696 119.383,204.200 119.600 M196.780 121.466 C 195.888 122.272,194.973 123.307,194.747 123.766 C 194.520 124.224,194.807 124.022,195.384 123.316 C 195.961 122.610,197.010 121.577,197.716 121.021 C 198.422 120.464,198.866 120.007,198.701 120.004 C 198.537 120.002,197.672 120.659,196.780 121.466 M207.293 120.841 C 207.895 121.290,208.854 122.229,209.426 122.928 C 209.997 123.628,210.277 123.820,210.048 123.355 C 209.608 122.463,206.973 119.991,206.486 120.013 C 206.329 120.020,206.692 120.392,207.293 120.841 M268.200 123.600 C 270.171 125.580,271.873 127.200,271.983 127.200 C 272.093 127.200,270.571 125.580,268.600 123.600 C 266.629 121.620,264.927 120.000,264.817 120.000 C 264.707 120.000,266.229 121.620,268.200 123.600 M131.381 123.700 C 128.471 126.716,125.330 130.274,127.232 128.400 C 129.448 126.217,134.528 120.800,134.359 120.800 C 134.261 120.800,132.921 122.105,131.381 123.700 M193.829 125.829 C 193.681 126.415,193.638 126.972,193.732 127.066 C 193.827 127.160,194.024 126.758,194.171 126.171 C 194.319 125.585,194.362 125.028,194.268 124.934 C 194.173 124.840,193.976 125.242,193.829 125.829 M211.301 128.200 C 211.305 129.080,211.387 129.393,211.483 128.895 C 211.579 128.398,211.575 127.678,211.475 127.295 C 211.375 126.913,211.296 127.320,211.301 128.200 M193.656 129.600 C 193.656 129.930,193.811 130.560,194.000 131.000 C 194.217 131.504,194.344 131.578,194.344 131.200 C 194.344 130.870,194.189 130.240,194.000 129.800 C 193.783 129.296,193.656 129.222,193.656 129.600 M209.916 132.641 C 209.318 133.610,207.984 134.935,206.938 135.598 C 205.896 136.259,205.232 136.800,205.462 136.800 C 206.750 136.800,211.825 131.663,211.159 131.034 C 211.071 130.952,210.512 131.675,209.916 132.641 M196.782 134.978 C 197.480 135.819,199.595 136.938,199.904 136.629 C 200.030 136.503,199.948 136.400,199.722 136.400 C 199.497 136.400,198.616 135.928,197.767 135.352 C 196.917 134.775,196.474 134.607,196.782 134.978 M121.521 135.500 C 120.537 136.642,117.517 141.251,117.664 141.387 C 117.739 141.456,118.821 140.002,120.068 138.156 C 122.312 134.835,122.691 134.143,121.521 135.500 M279.461 137.473 C 281.325 140.188,282.442 141.593,281.789 140.400 C 281.035 139.023,278.373 135.231,277.996 134.998 C 277.772 134.859,278.431 135.973,279.461 137.473 M201.905 137.083 C 202.402 137.179,203.122 137.175,203.505 137.075 C 203.887 136.975,203.480 136.896,202.600 136.901 C 201.720 136.905,201.407 136.987,201.905 137.083 M114.580 146.840 C 114.011 147.962,113.613 148.947,113.695 149.029 C 113.777 149.111,114.327 148.193,114.918 146.989 C 115.508 145.785,115.906 144.800,115.802 144.800 C 115.698 144.800,115.148 145.718,114.580 146.840 M285.082 146.989 C 285.673 148.193,286.223 149.111,286.305 149.029 C 286.484 148.849,284.467 144.800,284.198 144.800 C 284.094 144.800,284.492 145.785,285.082 146.989 M238.300 153.026 C 237.255 153.570,236.400 154.105,236.400 154.214 C 236.400 154.324,237.300 153.957,238.400 153.400 C 239.500 152.843,240.400 152.300,240.400 152.193 C 240.400 151.929,240.436 151.914,238.300 153.026 M230.017 157.379 C 229.652 157.819,229.647 158.131,229.999 158.679 C 230.436 159.362,230.448 159.360,230.223 158.649 C 230.076 158.183,230.254 157.695,230.693 157.362 C 231.082 157.067,231.197 156.820,230.949 156.813 C 230.701 156.806,230.282 157.061,230.017 157.379 M106.600 168.000 C 106.448 168.691,106.407 169.341,106.509 169.442 C 106.611 169.544,106.809 169.053,106.950 168.350 C 107.283 166.683,106.960 166.360,106.600 168.000 M292.856 167.200 C 292.856 167.530,293.011 168.160,293.200 168.600 C 293.417 169.104,293.544 169.178,293.544 168.800 C 293.544 168.470,293.389 167.840,293.200 167.400 C 292.983 166.896,292.856 166.822,292.856 167.200 M105.800 171.600 C 105.648 172.291,105.607 172.941,105.709 173.042 C 105.811 173.144,106.009 172.653,106.150 171.950 C 106.483 170.283,106.160 169.960,105.800 171.600 M293.668 170.800 C 293.688 171.839,294.318 173.546,294.332 172.600 C 294.338 172.160,294.189 171.440,294.000 171.000 C 293.789 170.510,293.661 170.432,293.668 170.800 M105.056 175.684 C 104.921 176.188,104.828 177.050,104.849 177.600 C 104.872 178.189,105.031 177.871,105.236 176.825 C 105.603 174.952,105.473 174.127,105.056 175.684 M294.673 176.400 C 294.804 177.390,294.976 178.275,295.056 178.367 C 295.357 178.714,295.128 176.164,294.790 175.400 C 294.553 174.866,294.514 175.198,294.673 176.400 M156.267 176.267 C 155.736 176.798,156.015 177.286,156.581 176.816 C 156.906 176.546,157.567 176.448,158.081 176.593 C 158.796 176.795,158.867 176.759,158.400 176.432 C 157.717 175.954,156.661 175.872,156.267 176.267 M253.656 177.200 C 253.656 177.530,253.811 178.160,254.000 178.600 C 254.217 179.104,254.344 179.178,254.344 178.800 C 254.344 178.470,254.189 177.840,254.000 177.400 C 253.783 176.896,253.656 176.822,253.656 177.200 M254.468 180.400 C 254.488 181.439,255.118 183.146,255.132 182.200 C 255.138 181.760,254.989 181.040,254.800 180.600 C 254.589 180.110,254.461 180.032,254.468 180.400 M104.501 181.800 C 104.505 182.680,104.587 182.993,104.683 182.495 C 104.779 181.998,104.775 181.278,104.675 180.895 C 104.575 180.513,104.496 180.920,104.501 181.800 M295.301 181.800 C 295.305 182.680,295.387 182.993,295.483 182.495 C 295.579 181.998,295.575 181.278,295.475 180.895 C 295.375 180.513,295.296 180.920,295.301 181.800 M169.029 181.829 C 168.881 182.415,168.838 182.972,168.932 183.066 C 169.027 183.160,169.224 182.758,169.371 182.171 C 169.519 181.585,169.562 181.028,169.468 180.934 C 169.373 180.840,169.176 181.242,169.029 181.829 M104.167 191.000 C 104.167 195.180,104.226 196.836,104.298 194.679 C 104.371 192.523,104.370 189.103,104.298 187.079 C 104.225 185.056,104.166 186.820,104.167 191.000 M295.767 191.000 C 295.767 195.180,295.826 196.836,295.898 194.679 C 295.971 192.523,295.970 189.103,295.898 187.079 C 295.825 185.056,295.766 186.820,295.767 191.000 M240.068 186.000 C 240.088 187.039,240.718 188.746,240.732 187.800 C 240.738 187.360,240.589 186.640,240.400 186.200 C 240.189 185.710,240.061 185.632,240.068 186.000 M151.429 190.229 C 151.281 190.815,151.238 191.372,151.332 191.466 C 151.427 191.560,151.624 191.158,151.771 190.571 C 151.919 189.985,151.962 189.428,151.868 189.334 C 151.773 189.240,151.576 189.642,151.429 190.229 M256.155 195.400 C 256.156 198.260,256.220 199.378,256.297 197.883 C 256.374 196.389,256.374 194.049,256.296 192.683 C 256.218 191.318,256.155 192.540,256.155 195.400 M149.822 197.822 C 149.672 198.625,149.628 199.362,149.726 199.460 C 149.824 199.557,150.027 198.981,150.178 198.178 C 150.328 197.375,150.372 196.638,150.274 196.540 C 150.176 196.443,149.973 197.019,149.822 197.822 M164.253 199.636 C 164.114 200.331,164.021 201.373,164.047 201.950 C 164.072 202.528,164.255 202.027,164.452 200.839 C 164.837 198.521,164.673 197.534,164.253 199.636 M149.314 203.400 C 149.317 204.500,149.395 204.903,149.487 204.295 C 149.579 203.686,149.577 202.786,149.482 202.295 C 149.387 201.803,149.311 202.300,149.314 203.400 M104.840 204.233 C 104.862 204.875,105.033 205.850,105.220 206.400 C 105.449 207.074,105.484 206.749,105.328 205.400 C 105.069 203.150,104.779 202.459,104.840 204.233 M294.640 204.840 C 294.493 205.757,294.452 206.585,294.547 206.680 C 294.642 206.776,294.846 206.110,295.000 205.200 C 295.154 204.290,295.196 203.462,295.093 203.360 C 294.990 203.257,294.787 203.923,294.640 204.840 M148.901 207.400 C 148.905 208.280,148.987 208.593,149.083 208.095 C 149.179 207.598,149.175 206.878,149.075 206.495 C 148.975 206.113,148.896 206.520,148.901 207.400 M254.629 208.629 C 254.481 209.215,254.438 209.772,254.532 209.866 C 254.627 209.960,254.824 209.558,254.971 208.971 C 255.119 208.385,255.162 207.828,255.068 207.734 C 254.973 207.640,254.776 208.042,254.629 208.629 M105.668 209.000 C 105.662 209.440,105.811 210.160,106.000 210.600 C 106.438 211.619,106.438 210.568,106.000 209.200 C 105.743 208.396,105.677 208.357,105.668 209.000 M149.314 211.400 C 149.317 212.500,149.395 212.903,149.487 212.295 C 149.579 211.686,149.577 210.786,149.482 210.295 C 149.387 209.803,149.311 210.300,149.314 211.400 M106.456 212.800 C 106.456 213.130,106.611 213.760,106.800 214.200 C 107.017 214.704,107.144 214.778,107.144 214.400 C 107.144 214.070,106.989 213.440,106.800 213.000 C 106.583 212.496,106.456 212.422,106.456 212.800 M293.029 213.429 C 292.881 214.015,292.838 214.572,292.932 214.666 C 293.027 214.760,293.224 214.358,293.371 213.771 C 293.519 213.185,293.562 212.628,293.468 212.534 C 293.373 212.440,293.176 212.842,293.029 213.429 M149.668 215.600 C 149.688 216.639,150.318 218.346,150.332 217.400 C 150.338 216.960,150.189 216.240,150.000 215.800 C 149.789 215.310,149.661 215.232,149.668 215.600 M235.623 217.900 C 234.891 218.945,234.631 219.497,235.046 219.127 C 235.771 218.480,237.399 216.000,237.100 216.000 C 237.020 216.000,236.355 216.855,235.623 217.900 M233.201 220.998 C 232.686 221.548,232.339 222.064,232.432 222.146 C 232.524 222.228,233.019 221.778,233.530 221.147 C 234.676 219.735,234.474 219.644,233.201 220.998 M168.699 221.400 C 169.154 222.060,170.123 223.140,170.852 223.800 C 171.830 224.687,171.719 224.478,170.426 223.000 C 168.066 220.302,167.720 219.982,168.699 221.400 M249.400 223.200 C 249.059 223.860,248.869 224.400,248.979 224.400 C 249.089 224.400,249.459 223.860,249.800 223.200 C 250.141 222.540,250.331 222.000,250.221 222.000 C 250.111 222.000,249.741 222.540,249.400 223.200 M230.199 223.912 C 229.539 224.510,228.459 225.415,227.799 225.922 C 227.140 226.429,226.960 226.665,227.400 226.447 C 228.448 225.927,232.188 222.797,231.744 222.812 C 231.555 222.818,230.860 223.313,230.199 223.912 M175.200 227.164 C 175.750 227.614,176.380 227.983,176.600 227.985 C 177.028 227.988,176.305 227.434,175.000 226.760 C 174.469 226.485,174.536 226.621,175.200 227.164 M241.789 233.300 L 239.000 236.200 241.900 233.411 C 244.594 230.820,244.983 230.400,244.689 230.400 C 244.628 230.400,243.323 231.705,241.789 233.300 M186.000 231.582 C 186.330 231.805,186.945 231.991,187.367 231.994 C 188.390 232.002,188.071 231.773,186.600 231.444 C 185.724 231.248,185.562 231.285,186.000 231.582 M189.800 232.390 C 190.564 232.728,193.114 232.957,192.767 232.656 C 192.675 232.576,191.790 232.404,190.800 232.273 C 189.598 232.114,189.266 232.153,189.800 232.390 M210.200 232.400 C 209.111 232.677,209.093 232.707,210.000 232.725 C 210.550 232.735,211.360 232.589,211.800 232.400 C 212.786 231.976,211.866 231.976,210.200 232.400 M159.183 234.100 C 160.841 235.866,161.200 236.184,161.200 235.883 C 161.200 235.819,160.345 234.964,159.300 233.983 L 157.400 232.200 159.183 234.100 M197.718 233.098 C 199.433 233.173,202.133 233.172,203.718 233.097 C 205.303 233.021,203.900 232.959,200.600 232.960 C 197.300 232.961,196.003 233.022,197.718 233.098 M115.000 235.600 C 115.341 236.260,115.711 236.800,115.821 236.800 C 115.931 236.800,115.741 236.260,115.400 235.600 C 115.059 234.940,114.689 234.400,114.579 234.400 C 114.469 234.400,114.659 234.940,115.000 235.600 M164.494 238.490 C 165.682 239.500,168.000 240.947,168.000 240.679 C 168.000 240.588,166.965 239.849,165.700 239.037 C 164.435 238.225,163.892 237.979,164.494 238.490 M117.324 239.800 C 117.662 240.460,118.238 241.360,118.604 241.800 C 118.970 242.240,118.865 241.880,118.370 241.000 C 117.280 239.058,116.464 238.122,117.324 239.800 M231.900 240.629 C 230.405 241.440,230.496 241.778,232.000 241.000 C 232.660 240.659,233.200 240.294,233.200 240.190 C 233.200 239.932,233.157 239.947,231.900 240.629 M281.453 241.300 L 280.733 242.600 281.558 241.600 C 282.289 240.713,282.614 240.000,282.286 240.000 C 282.224 240.000,281.849 240.585,281.453 241.300 M121.186 245.780 C 121.859 246.758,122.601 247.677,122.834 247.821 C 123.068 247.965,122.599 247.165,121.792 246.042 C 119.990 243.534,119.493 243.319,121.186 245.780 M277.775 246.668 C 277.159 247.476,276.859 248.011,277.109 247.856 C 277.621 247.540,279.353 245.200,279.075 245.200 C 278.976 245.200,278.391 245.861,277.775 246.668 M181.800 246.000 C 182.240 246.189,182.870 246.344,183.200 246.344 C 183.578 246.344,183.504 246.217,183.000 246.000 C 182.560 245.811,181.930 245.656,181.600 245.656 C 181.222 245.656,181.296 245.783,181.800 246.000 M218.200 246.000 C 217.696 246.217,217.622 246.344,218.000 246.344 C 218.330 246.344,218.960 246.189,219.400 246.000 C 219.904 245.783,219.978 245.656,219.600 245.656 C 219.270 245.656,218.640 245.811,218.200 246.000 M185.600 246.800 C 186.150 246.976,186.960 247.120,187.400 247.120 C 188.033 247.120,187.992 247.054,187.200 246.800 C 186.650 246.624,185.840 246.480,185.400 246.480 C 184.767 246.480,184.808 246.546,185.600 246.800 M214.000 246.800 C 213.208 247.054,213.167 247.120,213.800 247.120 C 214.240 247.120,215.050 246.976,215.600 246.800 C 216.392 246.546,216.433 246.480,215.800 246.480 C 215.360 246.480,214.550 246.624,214.000 246.800 M190.100 247.476 C 190.485 247.576,191.115 247.576,191.500 247.476 C 191.885 247.375,191.570 247.293,190.800 247.293 C 190.030 247.293,189.715 247.375,190.100 247.476 M207.000 247.600 C 205.080 247.863,205.064 247.876,206.600 247.908 C 207.480 247.926,209.010 247.797,210.000 247.620 C 212.370 247.199,210.041 247.183,207.000 247.600 M193.100 247.882 C 193.595 247.978,194.405 247.978,194.900 247.882 C 195.395 247.787,194.990 247.709,194.000 247.709 C 193.010 247.709,192.605 247.787,193.100 247.882 M124.396 249.994 C 125.090 250.871,125.867 251.718,126.123 251.876 C 126.378 252.034,125.893 251.316,125.045 250.281 C 124.197 249.247,123.420 248.400,123.318 248.400 C 123.216 248.400,123.701 249.118,124.396 249.994 M272.581 253.300 L 271.000 255.000 272.700 253.419 C 273.635 252.549,274.400 251.784,274.400 251.719 C 274.400 251.416,274.052 251.719,272.581 253.300 M128.696 255.000 C 132.618 259.534,142.000 268.036,142.000 267.057 C 142.000 266.952,140.492 265.689,138.648 264.249 C 136.805 262.809,133.266 259.510,130.785 256.916 C 128.304 254.322,127.364 253.460,128.696 255.000 M267.392 258.900 L 263.800 262.600 267.500 259.008 C 270.936 255.672,271.382 255.200,271.092 255.200 C 271.032 255.200,269.367 256.865,267.392 258.900 M259.400 265.844 L 257.800 267.276 259.600 265.961 C 260.590 265.237,261.475 264.590,261.567 264.523 C 261.658 264.455,261.568 264.403,261.367 264.406 C 261.165 264.409,260.280 265.056,259.400 265.844 M142.544 267.509 C 142.860 268.021,145.200 269.753,145.200 269.475 C 145.200 269.376,144.539 268.791,143.732 268.175 C 142.924 267.559,142.389 267.259,142.544 267.509 M249.096 272.950 C 247.175 274.131,246.638 274.689,248.200 273.881 C 249.454 273.233,251.145 272.026,250.800 272.025 C 250.690 272.025,249.923 272.441,249.096 272.950 M153.200 274.579 C 153.200 274.689,153.740 275.059,154.400 275.400 C 155.060 275.741,155.600 275.931,155.600 275.821 C 155.600 275.711,155.060 275.341,154.400 275.000 C 153.740 274.659,153.200 274.469,153.200 274.579 M243.900 275.829 C 242.405 276.640,242.496 276.978,244.000 276.200 C 244.660 275.859,245.200 275.494,245.200 275.390 C 245.200 275.132,245.157 275.147,243.900 275.829 M223.400 283.600 C 222.896 283.817,222.822 283.944,223.200 283.944 C 223.530 283.944,224.160 283.789,224.600 283.600 C 225.104 283.383,225.178 283.256,224.800 283.256 C 224.470 283.256,223.840 283.411,223.400 283.600 M182.200 285.200 C 182.640 285.389,183.360 285.538,183.800 285.532 C 184.443 285.523,184.404 285.457,183.600 285.200 C 182.232 284.762,181.181 284.762,182.200 285.200 M216.600 285.200 C 216.096 285.417,216.022 285.544,216.400 285.544 C 216.730 285.544,217.360 285.389,217.800 285.200 C 218.304 284.983,218.378 284.856,218.000 284.856 C 217.670 284.856,217.040 285.011,216.600 285.200 M189.300 286.287 C 189.905 286.378,190.895 286.378,191.500 286.287 C 192.105 286.195,191.610 286.120,190.400 286.120 C 189.190 286.120,188.695 286.195,189.300 286.287 M209.305 286.287 C 209.914 286.379,210.814 286.377,211.305 286.282 C 211.797 286.187,211.300 286.111,210.200 286.114 C 209.100 286.117,208.697 286.195,209.305 286.287 " stroke="none" fill="#00000" fill-rule="evenodd"></path></g></svg>